# Blender v2.78 (sub 0) OBJ File: 'untitled.blend'
# www.blender.org
o catraca_Cube
v 3.676695 0.000000 -1.591006
v 3.837132 0.000000 -2.446673
v 3.275601 0.000000 -3.168643
v 1.965361 0.000000 -3.409299
v 1.323611 0.000000 -3.115164
v 0.949257 0.000000 -2.179278
v 0.655120 0.000000 -1.296870
v 0.387724 0.000000 -0.414463
v 3.596476 0.000000 -0.922517
v 3.168643 0.000000 0.414464
v 3.222122 0.000000 1.885142
v 3.542997 0.000000 3.275601
v 2.580372 0.000000 4.051050
v 1.296871 0.000000 4.184748
v 0.788818 0.000000 2.446674
v 0.387724 0.000000 0.360985
v 0.360984 0.000000 1.671225
v 0.441203 0.000000 3.302341
v 0.307505 0.000000 4.639321
v 3.184111 -1.838348 -1.591006
v 3.323054 -1.918566 -2.446673
v 2.836754 -1.637801 -3.168643
v 1.702052 -0.982680 -3.409300
v 1.146280 -0.661805 -3.115164
v 0.822080 -0.474628 -2.179278
v 0.567350 -0.327560 -1.296870
v 0.335779 -0.193862 -0.414464
v 3.114640 -1.798238 -0.922517
v 2.744126 -1.584322 0.414464
v 2.790440 -1.611061 1.885142
v 3.068326 -1.771499 3.275601
v 2.234668 -1.290186 4.051050
v 1.123124 -0.648436 4.184748
v 0.683136 -0.394409 2.446674
v 0.335779 -0.193862 0.360985
v 0.312622 -0.180492 1.671225
v 0.382093 -0.220602 3.302341
v 0.266308 -0.153753 4.639321
v 1.838348 -3.184111 -1.591007
v 1.918566 -3.323054 -2.446674
v 1.637800 -2.836754 -3.168643
v 0.982680 -1.702052 -3.409300
v 0.661805 -1.146280 -3.115164
v 0.474628 -0.822080 -2.179278
v 0.327560 -0.567350 -1.296870
v 0.193862 -0.335779 -0.414464
v 1.798238 -3.114640 -0.922517
v 1.584322 -2.744126 0.414464
v 1.611061 -2.790440 1.885141
v 1.771499 -3.068326 3.275601
v 1.290187 -2.234668 4.051050
v 0.648436 -1.123124 4.184748
v 0.394409 -0.683136 2.446674
v 0.193862 -0.335779 0.360985
v 0.180492 -0.312622 1.671225
v 0.220602 -0.382093 3.302341
v 0.153753 -0.266308 4.639321
v 0.000000 -3.676695 -1.591007
v -0.000000 -3.837132 -2.446674
v -0.000001 -3.275601 -3.168643
v -0.000001 -1.965360 -3.409300
v -0.000001 -1.323610 -3.115164
v -0.000000 -0.949256 -2.179278
v -0.000000 -0.655119 -1.296870
v -0.000000 -0.387724 -0.414464
v -0.000000 -3.596476 -0.922517
v 0.000000 -3.168643 0.414464
v 0.000000 -3.222122 1.885141
v 0.000000 -3.542997 3.275601
v 0.000000 -2.580373 4.051050
v 0.000001 -1.296872 4.184748
v 0.000000 -0.788818 2.446674
v 0.000000 -0.387724 0.360985
v 0.000000 -0.360985 1.671225
v 0.000000 -0.441203 3.302341
v 0.000001 -0.307506 4.639321
v -1.838348 -3.184112 -1.591007
v -1.918566 -3.323053 -2.446674
v -1.637801 -2.836753 -3.168643
v -0.982681 -1.702051 -3.409300
v -0.661806 -1.146280 -3.115164
v -0.474629 -0.822080 -2.179278
v -0.327560 -0.567350 -1.296870
v -0.193862 -0.335779 -0.414464
v -1.798238 -3.114639 -0.922517
v -1.584322 -2.744126 0.414464
v -1.611061 -2.790440 1.885141
v -1.771498 -3.068326 3.275601
v -1.290186 -2.234668 4.051050
v -0.648435 -1.123124 4.184748
v -0.394408 -0.683136 2.446674
v -0.193862 -0.335779 0.360985
v -0.180492 -0.312622 1.671225
v -0.220601 -0.382094 3.302341
v -0.153752 -0.266308 4.639321
v -3.184112 -1.838347 -1.591007
v -3.323054 -1.918565 -2.446674
v -2.836754 -1.637799 -3.168643
v -1.702052 -0.982679 -3.409300
v -1.146281 -0.661804 -3.115164
v -0.822080 -0.474628 -2.179278
v -0.567350 -0.327559 -1.296870
v -0.335779 -0.193862 -0.414464
v -3.114640 -1.798238 -0.922517
v -2.744126 -1.584322 0.414464
v -2.790439 -1.611062 1.885141
v -3.068325 -1.771499 3.275601
v -2.234668 -1.290187 4.051050
v -1.123123 -0.648437 4.184748
v -0.683136 -0.394409 2.446674
v -0.335779 -0.193862 0.360985
v -0.312621 -0.180493 1.671225
v -0.382093 -0.220602 3.302341
v -0.266307 -0.153754 4.639321
v -3.676695 0.000000 -1.591006
v -3.837132 0.000001 -2.446673
v -3.275601 0.000001 -3.168643
v -1.965360 0.000001 -3.409300
v -1.323610 0.000001 -3.115164
v -0.949257 0.000001 -2.179278
v -0.655120 0.000000 -1.296870
v -0.387724 0.000000 -0.414464
v -3.596476 0.000000 -0.922517
v -3.168643 0.000000 0.414464
v -3.222122 -0.000001 1.885142
v -3.542997 -0.000001 3.275601
v -2.580372 -0.000001 4.051050
v -1.296871 -0.000001 4.184748
v -0.788817 -0.000001 2.446674
v -0.387724 -0.000000 0.360985
v -0.360984 -0.000000 1.671225
v -0.441203 -0.000001 3.302341
v -0.307505 -0.000001 4.639321
v -3.184111 1.838348 -1.591006
v -3.323053 1.918567 -2.446673
v -2.836753 1.637802 -3.168643
v -1.702052 0.982681 -3.409299
v -1.146280 0.661806 -3.115164
v -0.822080 0.474629 -2.179278
v -0.567350 0.327560 -1.296870
v -0.335779 0.193862 -0.414463
v -3.114639 1.798238 -0.922516
v -2.744126 1.584322 0.414464
v -2.790439 1.611061 1.885142
v -3.068325 1.771498 3.275601
v -2.234668 1.290185 4.051050
v -1.123124 0.648434 4.184748
v -0.683136 0.394408 2.446674
v -0.335779 0.193862 0.360985
v -0.312622 0.180492 1.671225
v -0.382093 0.220601 3.302341
v -0.266308 0.153751 4.639321
v -1.838347 3.184112 -1.591006
v -1.918566 3.323054 -2.446673
v -1.637800 2.836755 -3.168643
v -0.982679 1.702053 -3.409299
v -0.661805 1.146281 -3.115164
v -0.474628 0.822081 -2.179278
v -0.327560 0.567350 -1.296870
v -0.193862 0.335779 -0.414463
v -1.798238 3.114640 -0.922516
v -1.584322 2.744126 0.414464
v -1.611061 2.790439 1.885142
v -1.771498 3.068325 3.275601
v -1.290186 2.234667 4.051050
v -0.648436 1.123122 4.184748
v -0.394409 0.683135 2.446674
v -0.193862 0.335779 0.360985
v -0.180492 0.312621 1.671225
v -0.220602 0.382092 3.302341
v -0.153753 0.266306 4.639321
v 0.000000 3.676695 -1.591006
v 0.000001 3.837132 -2.446673
v 0.000001 3.275601 -3.168643
v 0.000001 1.965361 -3.409299
v 0.000001 1.323611 -3.115164
v 0.000000 0.949257 -2.179278
v 0.000000 0.655120 -1.296870
v 0.000000 0.387724 -0.414463
v 0.000000 3.596476 -0.922516
v 0.000000 3.168643 0.414464
v 0.000000 3.222121 1.885142
v -0.000000 3.542996 3.275601
v -0.000000 2.580371 4.051050
v -0.000000 1.296870 4.184748
v -0.000000 0.788817 2.446674
v 0.000000 0.387724 0.360985
v -0.000000 0.360984 1.671225
v -0.000000 0.441203 3.302341
v -0.000001 0.307504 4.639321
v 1.838348 3.184111 -1.591006
v 1.918566 3.323054 -2.446673
v 1.637801 2.836753 -3.168643
v 0.982681 1.702052 -3.409299
v 0.661806 1.146280 -3.115164
v 0.474629 0.822080 -2.179278
v 0.327560 0.567350 -1.296870
v 0.193862 0.335779 -0.414463
v 1.798238 3.114639 -0.922516
v 1.584322 2.744126 0.414464
v 1.611061 2.790439 1.885142
v 1.771498 3.068325 3.275601
v 1.290186 2.234667 4.051050
v 0.648435 1.123123 4.184748
v 0.394408 0.683136 2.446674
v 0.193862 0.335779 0.360985
v 0.180492 0.312621 1.671225
v 0.220601 0.382093 3.302341
v 0.153752 0.266307 4.639321
v 3.184111 1.838348 -1.591006
v 3.323054 1.918566 -2.446673
v 2.836754 1.637800 -3.168643
v 1.702052 0.982680 -3.409299
v 1.146281 0.661805 -3.115164
v 0.822080 0.474628 -2.179278
v 0.567350 0.327560 -1.296870
v 0.335779 0.193862 -0.414463
v 3.114640 1.798238 -0.922516
v 2.744126 1.584322 0.414464
v 2.790439 1.611060 1.885142
v 3.068325 1.771498 3.275601
v 2.234667 1.290186 4.051050
v 1.123123 0.648435 4.184748
v 0.683136 0.394408 2.446674
v 0.335779 0.193862 0.360985
v 0.312621 0.180492 1.671225
v 0.382093 0.220601 3.302341
v 0.266307 0.153752 4.639321
v 3.676695 0.000000 -1.591006
v 3.837132 -0.000000 -2.446673
v 3.275600 -0.000001 -3.168643
v 1.965360 -0.000000 -3.409299
v 1.323610 -0.000000 -3.115164
v 0.949256 -0.000000 -2.179278
v 0.655119 0.000000 -1.296870
v 0.387724 -0.000000 -0.414463
v 3.596476 -0.000000 -0.922517
v 3.168643 0.000000 0.414464
v 3.222122 -0.000000 1.885142
v 3.542996 -0.000000 3.275601
v 2.580372 -0.000000 4.051050
v 1.296871 -0.000000 4.184748
v 0.788817 -0.000000 2.446674
v 0.387724 -0.000000 0.360985
v 0.360984 -0.000000 1.671225
v 0.441203 -0.000000 3.302341
v 0.307505 -0.000000 4.639321
vn -0.9194 0.2464 -0.3065
vn 0.9228 -0.2473 0.2953
vn -0.9270 0.2484 -0.2809
vn 0.9595 -0.2571 0.1151
vn 0.1036 -0.0278 0.9942
vn 0.9505 -0.2547 0.1782
vn -0.9296 0.2491 0.2717
vn 0.7723 -0.2069 -0.6007
vn -0.9497 0.2545 0.1826
vn 0.1804 -0.0483 -0.9824
vn 0.6187 -0.1658 0.7680
vn 0.9657 -0.2588 0.0197
vn -0.4141 0.1110 -0.9035
vn 0.9428 -0.2526 -0.2176
vn 0.9648 -0.2585 -0.0475
vn -0.9010 0.2414 -0.3604
vn 0.9653 -0.2587 -0.0351
vn 0.9615 -0.2576 0.0961
vn -0.6952 0.6952 0.1826
vn 0.7070 -0.7070 0.0197
vn 0.7063 -0.7063 -0.0475
vn 0.7038 -0.7038 0.0961
vn -0.2545 0.9497 0.1826
vn 0.0483 -0.1804 -0.9824
vn 0.1658 -0.6187 0.7680
vn 0.2588 -0.9657 0.0197
vn -0.1110 0.4141 -0.9035
vn 0.2526 -0.9428 -0.2176
vn 0.2585 -0.9648 -0.0475
vn -0.2414 0.9010 -0.3604
vn 0.2587 -0.9653 -0.0351
vn 0.2576 -0.9615 0.0961
vn -0.2464 0.9194 -0.3065
vn 0.2473 -0.9228 0.2953
vn -0.2484 0.9270 -0.2809
vn 0.2571 -0.9595 0.1151
vn 0.0278 -0.1036 0.9942
vn 0.2547 -0.9505 0.1782
vn -0.2491 0.9296 0.2717
vn 0.2069 -0.7723 -0.6007
vn 0.2545 0.9497 0.1826
vn -0.0483 -0.1804 -0.9824
vn -0.1658 -0.6187 0.7680
vn -0.2588 -0.9657 0.0197
vn 0.1110 0.4141 -0.9035
vn -0.2526 -0.9428 -0.2176
vn -0.2585 -0.9648 -0.0475
vn 0.2414 0.9010 -0.3604
vn -0.2587 -0.9653 -0.0351
vn -0.2576 -0.9615 0.0961
vn 0.2464 0.9194 -0.3065
vn -0.2473 -0.9228 0.2953
vn 0.2484 0.9270 -0.2809
vn -0.2571 -0.9595 0.1151
vn -0.0278 -0.1036 0.9942
vn -0.2547 -0.9505 0.1782
vn 0.2491 0.9296 0.2717
vn -0.2069 -0.7723 -0.6007
vn -0.7038 -0.7038 0.0961
vn 0.6786 0.6786 -0.2809
vn 0.9497 0.2545 0.1826
vn -0.1804 -0.0483 -0.9824
vn -0.6187 -0.1658 0.7680
vn -0.9657 -0.2588 0.0197
vn 0.4141 0.1110 -0.9035
vn -0.9428 -0.2526 -0.2176
vn -0.9648 -0.2585 -0.0475
vn 0.9010 0.2414 -0.3604
vn -0.9653 -0.2587 -0.0351
vn -0.9615 -0.2576 0.0961
vn 0.9194 0.2464 -0.3065
vn -0.9228 -0.2473 0.2953
vn 0.9270 0.2484 -0.2809
vn -0.9595 -0.2571 0.1151
vn -0.1036 -0.0278 0.9942
vn -0.9505 -0.2547 0.1782
vn 0.9296 0.2491 0.2717
vn -0.7723 -0.2069 -0.6007
vn 0.9497 -0.2545 0.1826
vn -0.1804 0.0483 -0.9824
vn -0.6187 0.1658 0.7680
vn -0.9657 0.2588 0.0197
vn 0.4141 -0.1110 -0.9035
vn -0.9428 0.2526 -0.2176
vn -0.9648 0.2585 -0.0475
vn 0.9010 -0.2414 -0.3604
vn -0.9653 0.2587 -0.0351
vn -0.9615 0.2576 0.0961
vn 0.9194 -0.2464 -0.3065
vn -0.9228 0.2473 0.2953
vn 0.9270 -0.2484 -0.2809
vn -0.9595 0.2571 0.1151
vn -0.1036 0.0278 0.9942
vn -0.9505 0.2547 0.1782
vn 0.9296 -0.2491 0.2717
vn -0.7723 0.2069 -0.6007
vn 0.2545 -0.9497 0.1826
vn -0.0483 0.1804 -0.9824
vn -0.1658 0.6187 0.7680
vn -0.2588 0.9657 0.0197
vn 0.1110 -0.4141 -0.9035
vn -0.2526 0.9428 -0.2176
vn -0.2585 0.9648 -0.0475
vn 0.2414 -0.9010 -0.3604
vn -0.2587 0.9653 -0.0351
vn -0.2576 0.9615 0.0961
vn 0.2464 -0.9194 -0.3065
vn -0.2473 0.9228 0.2953
vn 0.2484 -0.9270 -0.2809
vn -0.2571 0.9595 0.1151
vn -0.0278 0.1036 0.9942
vn -0.2547 0.9505 0.1782
vn 0.2491 -0.9296 0.2717
vn -0.2069 0.7723 -0.6007
vn -0.2545 -0.9497 0.1826
vn 0.0483 0.1804 -0.9824
vn 0.1658 0.6187 0.7680
vn 0.2588 0.9657 0.0197
vn -0.1110 -0.4141 -0.9035
vn 0.2526 0.9428 -0.2176
vn 0.2585 0.9648 -0.0475
vn -0.2414 -0.9010 -0.3604
vn 0.2587 0.9653 -0.0351
vn 0.2576 0.9615 0.0961
vn -0.2464 -0.9194 -0.3065
vn 0.2473 0.9228 0.2953
vn -0.2484 -0.9270 -0.2809
vn 0.2571 0.9595 0.1151
vn 0.0278 0.1036 0.9942
vn 0.2547 0.9505 0.1782
vn -0.2491 -0.9296 0.2717
vn 0.2069 0.7723 -0.6007
vn -0.6952 -0.6952 0.1826
vn 0.7070 0.7070 0.0197
vn 0.7063 0.7063 -0.0475
vn 0.7038 0.7038 0.0961
vn -0.9497 -0.2545 0.1826
vn 0.1804 0.0483 -0.9824
vn 0.6187 0.1658 0.7680
vn 0.9657 0.2588 0.0197
vn -0.4141 -0.1110 -0.9035
vn 0.9428 0.2526 -0.2176
vn 0.9648 0.2585 -0.0475
vn -0.9010 -0.2414 -0.3604
vn 0.9653 0.2587 -0.0351
vn 0.9615 0.2576 0.0961
vn -0.9194 -0.2464 -0.3065
vn 0.9228 0.2473 0.2953
vn -0.9270 -0.2484 -0.2809
vn 0.9595 0.2571 0.1151
vn 0.1036 0.0278 0.9942
vn 0.9505 0.2547 0.1782
vn -0.9296 -0.2491 0.2717
vn 0.7723 0.2069 -0.6007
vn 0.0277 -0.1036 0.9942
vn -0.0277 -0.1036 0.9942
vn -0.0277 0.1036 0.9942
vn 0.0277 0.1036 0.9942
s off
f 6//1 26//1 7//1
f 10//2 28//2 9//2
f 8//3 26//3 27//3
f 9//4 20//4 1//4
f 13//5 33//5 32//5
f 2//6 20//6 21//6
f 15//7 33//7 14//7
f 2//8 22//8 3//8
f 16//9 34//9 15//9
f 4//10 22//10 23//10
f 13//11 31//11 12//11
f 17//12 35//12 16//12
f 5//13 23//13 24//13
f 12//14 30//14 11//14
f 18//15 36//15 17//15
f 5//16 25//16 6//16
f 10//17 30//17 29//17
f 18//18 38//18 37//18
f 35//19 53//19 34//19
f 36//20 54//20 35//20
f 37//21 55//21 36//21
f 38//22 56//22 37//22
f 54//23 72//23 53//23
f 42//24 60//24 61//24
f 50//25 70//25 69//25
f 54//26 74//26 73//26
f 43//27 61//27 62//27
f 50//28 68//28 49//28
f 56//29 74//29 55//29
f 43//30 63//30 44//30
f 48//31 68//31 67//31
f 57//32 75//32 56//32
f 44//33 64//33 45//33
f 48//34 66//34 47//34
f 45//35 65//35 46//35
f 47//36 58//36 39//36
f 51//37 71//37 70//37
f 40//38 58//38 59//38
f 52//39 72//39 71//39
f 41//40 59//40 60//40
f 73//41 91//41 72//41
f 60//42 80//42 61//42
f 69//43 89//43 88//43
f 73//44 93//44 92//44
f 61//45 81//45 62//45
f 69//46 87//46 68//46
f 75//47 93//47 74//47
f 62//48 82//48 63//48
f 67//49 87//49 86//49
f 75//50 95//50 94//50
f 63//51 83//51 64//51
f 67//52 85//52 66//52
f 64//53 84//53 65//53
f 66//54 77//54 58//54
f 70//55 90//55 89//55
f 59//56 77//56 78//56
f 72//57 90//57 71//57
f 60//58 78//58 79//58
f 94//59 114//59 113//59
f 83//60 103//60 84//60
f 110//61 130//61 129//61
f 98//62 118//62 99//62
f 108//63 126//63 107//63
f 112//64 130//64 111//64
f 100//65 118//65 119//65
f 107//66 125//66 106//66
f 113//67 131//67 112//67
f 100//68 120//68 101//68
f 106//69 124//69 105//69
f 114//70 132//70 113//70
f 101//71 121//71 102//71
f 105//72 123//72 104//72
f 103//73 121//73 122//73
f 104//74 115//74 96//74
f 108//75 128//75 127//75
f 97//76 115//76 116//76
f 109//77 129//77 128//77
f 98//78 116//78 117//78
f 130//79 148//79 129//79
f 117//80 137//80 118//80
f 126//81 146//81 145//81
f 131//82 149//82 130//82
f 118//83 138//83 119//83
f 125//84 145//84 144//84
f 132//85 150//85 131//85
f 119//86 139//86 120//86
f 124//87 144//87 143//87
f 132//88 152//88 151//88
f 120//89 140//89 121//89
f 123//90 143//90 142//90
f 121//91 141//91 122//91
f 123//92 134//92 115//92
f 127//93 147//93 146//93
f 115//94 135//94 116//94
f 129//95 147//95 128//95
f 117//96 135//96 136//96
f 168//97 186//97 167//97
f 156//98 174//98 175//98
f 164//99 184//99 183//99
f 169//100 187//100 168//100
f 156//101 176//101 157//101
f 163//102 183//102 182//102
f 170//103 188//103 169//103
f 157//104 177//104 158//104
f 163//105 181//105 162//105
f 170//106 190//106 189//106
f 158//107 178//107 159//107
f 161//108 181//108 180//108
f 159//109 179//109 160//109
f 161//110 172//110 153//110
f 165//111 185//111 184//111
f 154//112 172//112 173//112
f 166//113 186//113 185//113
f 155//114 173//114 174//114
f 187//115 205//115 186//115
f 175//116 193//116 194//116
f 183//117 203//117 202//117
f 188//118 206//118 187//118
f 176//119 194//119 195//119
f 182//120 202//120 201//120
f 189//121 207//121 188//121
f 176//122 196//122 177//122
f 182//123 200//123 181//123
f 190//124 208//124 189//124
f 177//125 197//125 178//125
f 180//126 200//126 199//126
f 178//127 198//127 179//127
f 180//128 191//128 172//128
f 184//129 204//129 203//129
f 173//130 191//130 192//130
f 186//131 204//131 185//131
f 173//132 193//132 174//132
f 206//133 224//133 205//133
f 207//134 225//134 206//134
f 208//135 226//135 207//135
f 208//136 228//136 227//136
f 225//137 243//137 224//137
f 212//138 232//138 213//138
f 221//139 241//139 240//139
f 226//140 244//140 225//140
f 213//141 233//141 214//141
f 220//142 240//142 239//142
f 227//143 245//143 226//143
f 215//144 233//144 234//144
f 220//145 238//145 219//145
f 228//146 246//146 227//146
f 216//147 234//147 235//147
f 218//148 238//148 237//148
f 217//149 235//149 236//149
f 218//150 229//150 210//150
f 222//151 242//151 241//151
f 211//152 229//152 230//152
f 224//153 242//153 223//153
f 212//154 230//154 231//154
f 6//1 25//1 26//1
f 10//2 29//2 28//2
f 8//3 7//3 26//3
f 9//4 28//4 20//4
f 13//5 14//5 33//5
f 2//6 1//6 20//6
f 15//7 34//7 33//7
f 2//8 21//8 22//8
f 16//9 35//9 34//9
f 4//10 3//10 22//10
f 13//11 32//11 31//11
f 17//12 36//12 35//12
f 5//13 4//13 23//13
f 12//14 31//14 30//14
f 18//15 37//15 36//15
f 5//16 24//16 25//16
f 10//17 11//17 30//17
f 18//18 19//18 38//18
f 35//19 54//19 53//19
f 36//20 55//20 54//20
f 37//21 56//21 55//21
f 38//22 57//22 56//22
f 54//23 73//23 72//23
f 42//24 41//24 60//24
f 50//25 51//25 70//25
f 54//26 55//26 74//26
f 43//27 42//27 61//27
f 50//28 69//28 68//28
f 56//29 75//29 74//29
f 43//30 62//30 63//30
f 48//31 49//31 68//31
f 57//32 76//32 75//32
f 44//33 63//33 64//33
f 48//34 67//34 66//34
f 45//35 64//35 65//35
f 47//36 66//36 58//36
f 51//155 52//155 71//155
f 40//38 39//38 58//38
f 52//39 53//39 72//39
f 41//40 40//40 59//40
f 73//41 92//41 91//41
f 60//42 79//42 80//42
f 69//43 70//43 89//43
f 73//44 74//44 93//44
f 61//45 80//45 81//45
f 69//46 88//46 87//46
f 75//47 94//47 93//47
f 62//48 81//48 82//48
f 67//49 68//49 87//49
f 75//50 76//50 95//50
f 63//51 82//51 83//51
f 67//52 86//52 85//52
f 64//53 83//53 84//53
f 66//54 85//54 77//54
f 70//156 71//156 90//156
f 59//56 58//56 77//56
f 72//57 91//57 90//57
f 60//58 59//58 78//58
f 94//59 95//59 114//59
f 83//60 102//60 103//60
f 110//61 111//61 130//61
f 98//62 117//62 118//62
f 108//63 127//63 126//63
f 112//64 131//64 130//64
f 100//65 99//65 118//65
f 107//66 126//66 125//66
f 113//67 132//67 131//67
f 100//68 119//68 120//68
f 106//69 125//69 124//69
f 114//70 133//70 132//70
f 101//71 120//71 121//71
f 105//72 124//72 123//72
f 103//73 102//73 121//73
f 104//74 123//74 115//74
f 108//75 109//75 128//75
f 97//76 96//76 115//76
f 109//77 110//77 129//77
f 98//78 97//78 116//78
f 130//79 149//79 148//79
f 117//80 136//80 137//80
f 126//81 127//81 146//81
f 131//82 150//82 149//82
f 118//83 137//83 138//83
f 125//84 126//84 145//84
f 132//85 151//85 150//85
f 119//86 138//86 139//86
f 124//87 125//87 144//87
f 132//88 133//88 152//88
f 120//89 139//89 140//89
f 123//90 124//90 143//90
f 121//91 140//91 141//91
f 123//92 142//92 134//92
f 127//93 128//93 147//93
f 115//94 134//94 135//94
f 129//95 148//95 147//95
f 117//96 116//96 135//96
f 168//97 187//97 186//97
f 156//98 155//98 174//98
f 164//99 165//99 184//99
f 169//100 188//100 187//100
f 156//101 175//101 176//101
f 163//102 164//102 183//102
f 170//103 189//103 188//103
f 157//104 176//104 177//104
f 163//105 182//105 181//105
f 170//106 171//106 190//106
f 158//107 177//107 178//107
f 161//108 162//108 181//108
f 159//109 178//109 179//109
f 161//110 180//110 172//110
f 165//157 166//157 185//157
f 154//112 153//112 172//112
f 166//113 167//113 186//113
f 155//114 154//114 173//114
f 187//115 206//115 205//115
f 175//116 174//116 193//116
f 183//117 184//117 203//117
f 188//118 207//118 206//118
f 176//119 175//119 194//119
f 182//120 183//120 202//120
f 189//121 208//121 207//121
f 176//122 195//122 196//122
f 182//123 201//123 200//123
f 190//124 209//124 208//124
f 177//125 196//125 197//125
f 180//126 181//126 200//126
f 178//127 197//127 198//127
f 180//128 199//128 191//128
f 184//158 185//158 204//158
f 173//130 172//130 191//130
f 186//131 205//131 204//131
f 173//132 192//132 193//132
f 206//133 225//133 224//133
f 207//134 226//134 225//134
f 208//135 227//135 226//135
f 208//136 209//136 228//136
f 225//137 244//137 243//137
f 212//138 231//138 232//138
f 221//139 222//139 241//139
f 226//140 245//140 244//140
f 213//141 232//141 233//141
f 220//142 221//142 240//142
f 227//143 246//143 245//143
f 215//144 214//144 233//144
f 220//145 239//145 238//145
f 228//146 247//146 246//146
f 216//147 215//147 234//147
f 218//148 219//148 238//148
f 217//149 216//149 235//149
f 218//150 237//150 229//150
f 222//151 223//151 242//151
f 211//152 210//152 229//152
f 224//153 243//153 242//153
f 212//154 211//154 230//154
